<svg width="54" height="23" viewBox="0 0 54 23" fill="none" xmlns="http://www.w3.org/2000/svg">
<path d="M25.7563 13.7571C25.6255 13.6819 25.4936 13.6077 25.3638 13.5304C24.8941 13.2388 24.3925 13.0019 23.8688 12.8247C23.6325 12.7439 23.4007 12.6507 23.1744 12.5454C22.9869 12.462 22.788 12.4105 22.5922 12.3497C21.8195 12.1148 21.0066 12.0375 20.2215 11.8572C20.1865 11.849 20.1515 11.8397 20.1154 11.8387C20.0659 11.8366 20.0196 11.8634 20.0052 11.9128C19.9731 12.0235 19.9476 12.136 19.9289 12.2497C19.9238 12.2776 19.9516 12.3219 19.9763 12.3383C20.0721 12.4033 20.1752 12.4517 20.2936 12.4723C20.6831 12.5423 21.0705 12.6176 21.4579 12.6928C21.6258 12.7247 21.7927 12.7587 21.9596 12.7958C22.0204 12.8092 22.0822 12.8257 22.1369 12.8535C22.2656 12.9194 22.4016 12.9545 22.549 12.9658C22.6365 12.973 22.7272 12.9967 22.8065 13.0338C23.2568 13.2502 23.7328 13.4047 24.1985 13.584C24.3067 13.6252 24.4107 13.6767 24.5107 13.7344C24.9661 13.9961 25.4194 14.2619 25.8738 14.5277C26.0427 14.6256 26.2107 14.7266 26.3786 14.8255C26.7341 15.0336 27.1173 15.1789 27.5161 15.286C27.991 15.4138 28.4639 15.5477 28.9399 15.6755C29.2171 15.7497 29.4994 15.8043 29.792 15.8053C30.2216 15.8074 30.6368 15.8795 31.0541 15.9516C31.3632 16.0052 31.6775 16.0443 31.9896 16.0887L33.2188 16.2638C33.3259 16.2793 33.4331 16.2937 33.5402 16.305C33.7772 16.3318 34.0121 16.2978 34.246 16.2133C34.3497 16.1731 34.4575 16.144 34.5675 16.1268C34.7498 16.1031 34.8848 16.0196 34.9538 15.8331C34.9806 15.759 35.029 15.7239 35.1001 15.7177C35.4113 15.693 35.7214 15.6683 36.0222 15.7456C36.117 15.7703 36.2149 15.7868 36.3118 15.8053C36.4577 15.8371 36.6103 15.814 36.7404 15.7404C37.0546 15.5622 37.3792 15.5405 37.7068 15.5766C38.3456 15.6487 38.9699 15.7723 39.5861 15.932C40.0888 16.0619 40.5855 16.2164 41.0944 16.3215C41.692 16.4451 42.2762 16.6151 42.8665 16.7645C43.4013 16.9005 43.9453 16.952 44.5068 16.9047C44.8993 16.8707 45.2919 16.847 45.6844 16.8016C46.2325 16.7357 46.7796 16.7213 47.3267 16.6965C48.0304 16.6656 48.7331 16.61 49.4347 16.4822C49.4883 16.4719 49.546 16.4616 49.5975 16.4688C49.6253 16.473 49.649 16.5121 49.6665 16.541C49.6707 16.5502 49.6439 16.5935 49.6253 16.5997C49.3121 16.7068 49.0278 16.884 48.7434 17.0602C48.4024 17.2714 48.0603 17.4816 47.7203 17.6949C47.6317 17.7505 47.541 17.8072 47.4627 17.8773C47.397 17.9339 47.3416 18.0016 47.2989 18.0771C47.201 18.2595 47.3082 18.4316 47.5039 18.412C47.5681 18.4038 47.6307 18.3857 47.6894 18.3584C47.7584 18.3275 47.8233 18.2853 47.8882 18.2451C48.3189 17.9793 48.7516 17.7165 49.1802 17.4456C49.5172 17.2333 49.8736 17.0953 50.2497 17.0221C50.3218 17.0077 50.3939 16.9891 50.4671 16.9788C51.2079 16.8696 51.8395 16.4946 52.4061 15.9722C52.5345 15.8443 52.6882 15.7446 52.8574 15.6796C52.9682 15.6459 53.0655 15.5782 53.1356 15.4859C53.1977 15.3997 53.2914 15.3415 53.3962 15.3242C53.5178 15.3036 53.6157 15.354 53.6507 15.4715C53.6718 15.5449 53.6778 15.6219 53.6682 15.6977C53.6586 15.7735 53.6338 15.8466 53.5951 15.9125C53.4447 16.1742 53.3087 16.4451 53.1232 16.6873C52.9759 16.881 52.843 17.086 52.6977 17.2817C52.4288 17.6475 52.1001 17.9453 51.7375 18.2028C51.3927 18.4437 51.0312 18.6596 50.6556 18.8488C50.4197 18.9694 50.1848 19.0951 49.9509 19.2197C49.8239 19.2894 49.7085 19.3784 49.6088 19.4835C49.4863 19.6073 49.3602 19.7275 49.2307 19.8441C49.1052 19.9631 48.9625 20.0624 48.8073 20.1388C48.731 20.1748 48.661 20.2274 48.5909 20.2779C48.4188 20.4005 48.253 20.5334 48.0778 20.6498C47.8048 20.8311 47.5163 20.9692 47.2041 21.0413C47.0702 21.0722 46.9332 21.1176 46.8064 21.1783C46.6507 21.2614 46.4759 21.3019 46.2995 21.2958C46.1984 21.2889 46.0969 21.3018 46.0007 21.3339C45.3506 21.5668 44.685 21.6574 44.0184 21.7306C43.6527 21.7718 43.2869 21.7842 42.9232 21.8161C42.6131 21.8429 42.3019 21.8759 41.9918 21.9099C41.59 21.9542 41.1892 22.0026 40.7874 22.05C40.7328 22.0562 40.6802 22.0603 40.6339 22.1056C40.4701 22.2622 40.2702 22.3045 40.0672 22.3343C39.769 22.3764 39.4674 22.3895 39.1667 22.3735C39.0026 22.3605 38.8374 22.3713 38.6763 22.4054C38.5973 22.4278 38.5147 22.4341 38.4333 22.4238C38.3518 22.4135 38.2733 22.387 38.2024 22.3457C38.1405 22.3076 38.0859 22.3127 38.0231 22.3354C37.953 22.3611 37.8819 22.3848 37.8108 22.4116C37.545 22.5095 37.2751 22.5713 36.999 22.5919C36.8444 22.6043 36.6899 22.63 36.5343 22.6507C36.2767 22.6836 36.0284 22.6692 35.776 22.6239C34.9615 22.4776 34.1451 22.3423 33.327 22.2179C32.4007 22.0788 31.4693 21.9655 30.5452 21.8223C30.0755 21.7443 29.6091 21.6481 29.147 21.5338C28.5288 21.3875 27.9138 21.2247 27.3162 21.0125C26.9633 20.8871 26.6126 20.7555 26.2642 20.6179C26.1319 20.5642 26.0053 20.4976 25.8861 20.419C25.5873 20.2253 25.2885 20.0306 25.0001 19.8214C24.7682 19.6545 24.5828 19.432 24.4076 19.2033C24.3131 19.0823 24.222 18.9586 24.1346 18.8323C23.8029 18.3481 23.3681 17.9834 22.8828 17.6763C22.5809 17.4847 22.2512 17.3487 21.9246 17.2076C21.7185 17.12 21.5084 17.0458 21.3013 16.9644C21.1949 16.915 21.0785 16.8911 20.9613 16.8943C20.9083 16.8953 20.857 16.9127 20.8144 16.944C20.7718 16.9754 20.7399 17.0192 20.7233 17.0695C20.7045 17.1129 20.7001 17.1612 20.7106 17.2074C20.7212 17.2535 20.7462 17.2951 20.782 17.326C20.8541 17.3899 20.9365 17.4476 21.0252 17.4868C21.2446 17.5847 21.4682 17.6722 21.6928 17.7608C22.244 17.9782 22.755 18.2616 23.1991 18.6572C23.2856 18.7345 23.3639 18.822 23.4412 18.9086C23.4711 18.9405 23.4927 18.9807 23.5164 19.0178C23.4639 19.0652 23.4134 19.0405 23.3619 19.025C23.0631 18.9292 22.7437 18.9117 22.4336 18.8643C21.9978 18.7963 21.5619 18.7324 21.1251 18.6654C20.8869 18.6238 20.6534 18.5592 20.4276 18.4728C19.8485 18.2667 19.2675 18.0607 18.6905 17.8463C18.3484 17.7196 18.0105 17.5805 17.6736 17.4383C17.2388 17.255 16.8071 17.0643 16.3754 16.8748C16.1786 16.7893 15.9839 16.7017 15.7902 16.611C15.4759 16.4627 15.1638 16.3102 14.8495 16.1618C14.5682 16.0299 14.2828 15.9022 14.0005 15.7713C13.7255 15.6446 13.4504 15.5189 13.1784 15.387C12.929 15.2675 12.6848 15.1397 12.4365 15.0182C11.9873 14.8018 11.5402 14.5803 11.0869 14.3732C10.7581 14.214 10.4515 14.0124 10.175 13.7736C9.50725 13.2224 8.86373 12.6425 8.2463 12.0354C8.07424 11.8665 7.88776 11.714 7.70849 11.5533C7.69715 11.543 7.692 11.5244 7.68376 11.51L7.75897 11.4801C7.76721 11.477 7.77752 11.4801 7.78576 11.4822C8.09485 11.5399 8.40188 11.611 8.69242 11.7263C9.1643 11.9139 9.62382 12.1313 10.0607 12.3899C10.513 12.6577 10.9756 12.9071 11.4619 13.108C11.9667 13.3151 12.4963 13.448 13.0393 13.5356C13.1208 13.545 13.2033 13.5408 13.2835 13.5232C13.3391 13.5109 13.3911 13.4855 13.4349 13.449C13.5534 13.3542 13.5688 13.2017 13.472 13.1008C13.436 13.0616 13.3911 13.0316 13.3412 13.0132C13.2484 12.9823 13.1516 12.9637 13.0547 12.9431C12.6591 12.8628 12.2645 12.7752 11.8905 12.6289C11.5144 12.4888 11.1493 12.3208 10.7984 12.1261C10.5665 11.9942 10.3388 11.8531 10.1029 11.7284C9.63927 11.4832 9.16945 11.2493 8.66461 11.0896C8.22781 10.9485 7.77438 10.8654 7.31594 10.8423C7.07176 10.831 6.82655 10.8238 6.58236 10.8135C6.4917 10.8104 6.4 10.8094 6.31036 10.798C6.21351 10.7857 6.11667 10.7713 6.04455 10.6888C5.98067 10.6167 5.89 10.5971 5.79521 10.6322C5.69939 10.6672 5.61285 10.6445 5.52836 10.6198C5.07454 10.4867 4.62813 10.3295 4.19103 10.149C3.79643 9.98411 3.40079 9.82235 3.01855 9.63071C2.89854 9.57266 2.78131 9.50905 2.66721 9.44011C2.40964 9.27938 2.15721 9.11247 1.90479 8.94762C1.63122 8.77748 1.38407 8.56817 1.17121 8.32635C1.07333 8.21095 0.99091 8.07908 0.903334 7.95441C0.877577 7.91732 0.861091 7.87198 0.834304 7.83695C0.797213 7.7875 0.726122 7.74732 0.720971 7.69374C0.715819 7.61441 0.75188 7.52683 0.777638 7.44441C0.801335 7.37126 0.835335 7.30017 0.865213 7.22805C0.964122 6.99314 1.03418 6.75205 1.05067 6.50065C1.05788 6.40483 1.06818 6.30901 1.06921 6.21423C1.07746 5.79283 1.14443 5.37659 1.232 4.95829C1.31443 4.55853 1.43188 4.17526 1.60188 3.7992C1.93364 3.06459 2.44673 2.57314 3.20503 2.39283C3.59139 2.30011 3.96952 2.2795 4.33012 2.42993C4.39606 2.45774 4.46818 2.46805 4.53515 2.49277C4.77418 2.58241 5.02352 2.59786 5.28315 2.56695C5.71382 2.51544 6.14139 2.50205 6.56382 2.55974C7.00994 2.62156 7.45503 2.69059 7.87952 2.8338C8.05776 2.89253 8.22982 2.96774 8.406 3.02956C8.48913 3.06251 8.57658 3.08333 8.66564 3.09138C8.83461 3.09859 8.94176 2.92653 8.86448 2.77302C8.77941 2.61322 8.64081 2.48848 8.47297 2.42065C8.15301 2.28145 7.81849 2.17847 7.47564 2.11362C7.30873 2.07962 7.13976 2.0518 6.97182 2.02089C6.43422 1.92682 5.88569 1.91259 5.34394 1.97865C5.11109 2.00647 4.88855 1.99926 4.67733 1.91271C4.64436 1.89829 4.60521 1.89829 4.5743 1.88489C4.05606 1.66544 3.51618 1.71489 2.966 1.86326C2.90315 1.87974 2.84133 1.90344 2.77746 1.91683C2.75479 1.92096 2.7177 1.91374 2.73315 1.87356C2.79291 1.71902 2.85679 1.5655 2.98249 1.45011C3.06697 1.37077 3.14836 1.28526 3.24006 1.21726C3.442 1.06786 3.6357 0.908167 3.81291 0.728895C3.87933 0.660222 3.9647 0.612876 4.05812 0.592894C4.29509 0.540348 4.51351 0.436288 4.73297 0.314713C4.92976 0.20447 5.15024 0.143682 5.36352 0.0777428C5.43976 0.0530156 5.52733 0.0664095 5.60667 0.0777428C5.73133 0.0942277 5.856 0.116894 5.97758 0.147803C6.41958 0.261137 6.86364 0.37138 7.30049 0.498107C7.58382 0.580531 7.86097 0.68047 8.13503 0.786591C8.87479 1.07405 9.61661 1.35635 10.3759 1.59332C10.6397 1.67574 10.9086 1.74786 11.1744 1.82514C11.5433 1.93435 11.8977 2.08065 12.2408 2.25271C12.6859 2.47732 13.1268 2.70708 13.5534 2.96774C14.0098 3.24592 14.3725 3.62302 14.6661 4.07635C14.8196 4.31126 14.969 4.55029 15.1298 4.77696C15.445 5.22205 15.8232 5.60326 16.2198 5.96386C16.3115 6.04629 16.4218 6.11017 16.5279 6.17508C16.6052 6.22247 16.6927 6.23896 16.7885 6.22041C16.9462 6.19053 17.0482 6.0092 16.9719 5.87011C16.9239 5.7839 16.8583 5.70877 16.7793 5.64962C16.5351 5.46726 16.3249 5.2478 16.1116 5.03144C15.8544 4.76681 15.6232 4.47802 15.4213 4.16908C15.397 4.13095 15.3756 4.09099 15.3575 4.04956C15.3533 4.04235 15.3708 4.01247 15.3781 4.01247C15.4502 4.01247 15.5223 4.01247 15.5944 4.01865C16.0951 4.06916 16.5885 4.17525 17.0657 4.33496C17.3109 4.41532 17.5541 4.50598 17.7766 4.63889C18.0826 4.82126 18.3948 4.99435 18.6936 5.18702C18.9336 5.3395 19.1562 5.52083 19.3921 5.67847C19.7836 5.94223 20.1648 6.22041 20.5801 6.44811C20.6027 6.46047 20.6254 6.47798 20.6512 6.48417C20.8974 6.54805 21.1004 6.69744 21.3209 6.8118C21.4785 6.89423 21.6402 6.96841 21.7989 7.0498C22.0998 7.20538 22.3913 7.37332 22.6675 7.57217C23.1156 7.89465 23.5442 8.24289 23.9708 8.59526C24.3623 8.91877 24.7518 9.24641 25.1587 9.54932C25.509 9.80999 25.8758 10.0459 26.2436 10.2808C27.0267 10.7785 27.7633 11.3359 28.4011 12.0231C28.7741 12.4249 29.1862 12.7803 29.6045 13.1286C29.7817 13.2759 29.9744 13.4068 30.165 13.5366C30.4019 13.6963 30.6389 13.856 30.8852 13.9982C31.1551 14.1527 31.4312 14.297 31.7135 14.4288C32.4399 14.7709 33.1147 15.2047 33.8225 15.5828C33.8535 15.5993 33.8844 15.6178 33.9132 15.6384C33.9266 15.6487 33.9348 15.6662 33.9462 15.6796C33.9225 15.694 33.8978 15.7188 33.8741 15.7188C33.7484 15.7198 33.6185 15.727 33.4949 15.7105C33.1735 15.6673 32.8551 15.6127 32.5347 15.5622C32.4553 15.5498 32.376 15.5292 32.2946 15.5251C31.833 15.4973 31.3828 15.4128 30.9315 15.3303C30.6034 15.2668 30.2704 15.2323 29.9362 15.2273C29.6833 15.2258 29.4316 15.1918 29.1872 15.1263C28.6082 14.9718 28.0312 14.8111 27.4553 14.6473C27.1973 14.5739 26.9495 14.4687 26.7176 14.334L25.746 13.7736C25.7501 13.7694 25.7532 13.7633 25.7563 13.7571Z" fill="black"/>
</svg>
